# xmcd CD database file
#
# Track frame offsets:
#	196
#	19081
#	38736
#	64681
#	83935
#	101810
#	122042
#	139626
#	154267
#
# Disc length: 2312 seconds
#
# Revision: 0
# Processed by: cddbd v1.5.1PL0 Copyright (c) Steve Scherf et al.
# Submitted via: CDex 1.51
#
DISCID=72090609
DTITLE=Dicky Williams - Full Grown Man
DYEAR=1900
DGENRE=Blues
TTITLE0=Everything Is Everything
TTITLE1=Everybody's a Fool for Somebody
TTITLE2=I Live to Love You
TTITLE3=Man
TTITLE4=Beer Drinkin' Man
TTITLE5=Our Love Needs a Tune-Up
TTITLE6=Fall Out of Love
TTITLE7=President of the Blues
TTITLE8=Stronger
EXTD=
EXTT0=
EXTT1=
EXTT2=
EXTT3=
EXTT4=
EXTT5=
EXTT6=
EXTT7=
EXTT8=
PLAYORDER=
